<!-- Generated by IcoMoon.io -->
<svg version="1.1" xmlns="http://www.w3.org/2000/svg" width="1024" height="1024" viewBox="0 0 1024 1024">
<title></title>
<g id="icomoon-ignore">
</g>
<path d="M137.338 182.657c-2.975-2.975-5.335-6.508-6.945-10.395s-2.439-8.053-2.439-12.261c0-4.207 0.829-8.374 2.439-12.261s3.97-7.42 6.945-10.395c2.975-2.975 6.508-5.335 10.395-6.945s8.054-2.439 12.261-2.439c4.207 0 8.374 0.829 12.261 2.439s7.42 3.97 10.395 6.945l329.344 329.408 329.344-329.408c2.976-2.975 6.509-5.335 10.394-6.945 3.891-1.61 8.058-2.439 12.262-2.439s8.371 0.829 12.262 2.439c3.885 1.61 7.418 3.97 10.394 6.945s5.338 6.508 6.944 10.395c1.613 3.887 2.438 8.054 2.438 12.261s-0.826 8.374-2.438 12.261c-1.606 3.887-3.968 7.42-6.944 10.395l-329.408 329.344 329.408 329.343c2.976 2.976 5.338 6.509 6.944 10.394 1.613 3.891 2.438 8.058 2.438 12.262 0 4.211-0.826 8.378-2.438 12.262-1.606 3.885-3.968 7.418-6.944 10.394s-6.509 5.338-10.394 6.944c-3.891 1.613-8.058 2.445-12.262 2.445s-8.371-0.832-12.262-2.445c-3.885-1.606-7.418-3.968-10.394-6.944l-329.344-329.407-329.344 329.407c-2.975 2.976-6.508 5.338-10.395 6.944-3.887 1.613-8.054 2.445-12.261 2.445s-8.374-0.832-12.261-2.445c-3.887-1.606-7.42-3.968-10.395-6.944s-5.335-6.509-6.945-10.394c-1.61-3.885-2.439-8.051-2.439-12.262 0-4.205 0.829-8.371 2.439-12.262 1.61-3.885 3.97-7.418 6.945-10.394l329.408-329.343-329.408-329.344z"></path>
</svg>
